<mxfile host="app.diagrams.net" agent="Mozilla/5.0 (Windows NT 10.0; Win64; x64) AppleWebKit/537.36 (KHTML, like Gecko) Chrome/135.0.0.0 Safari/537.36" version="26.2.13">
  <diagram name="ページ1" id="gwst1a2DxKdk7zVmhHp6">
    <mxGraphModel dx="2068" dy="1151" grid="1" gridSize="10" guides="1" tooltips="1" connect="1" arrows="1" fold="1" page="1" pageScale="1" pageWidth="3300" pageHeight="4681" math="0" shadow="0">
      <root>
        <mxCell id="0" />
        <mxCell id="1" parent="0" />
        <mxCell id="VSUEKThK-QnD745A-PjU-35" value="" style="rounded=0;whiteSpace=wrap;html=1;" vertex="1" parent="1">
          <mxGeometry x="500" y="240" width="950" height="330" as="geometry" />
        </mxCell>
        <mxCell id="VSUEKThK-QnD745A-PjU-31" value="" style="rounded=0;whiteSpace=wrap;html=1;" vertex="1" parent="1">
          <mxGeometry x="1670" y="280" width="370" height="240" as="geometry" />
        </mxCell>
        <mxCell id="VSUEKThK-QnD745A-PjU-23" value="" style="rounded=0;whiteSpace=wrap;html=1;" vertex="1" parent="1">
          <mxGeometry x="530" y="415" width="870" height="100" as="geometry" />
        </mxCell>
        <mxCell id="VSUEKThK-QnD745A-PjU-18" value="" style="rounded=0;whiteSpace=wrap;html=1;" vertex="1" parent="1">
          <mxGeometry x="530" y="270" width="870" height="100" as="geometry" />
        </mxCell>
        <mxCell id="VSUEKThK-QnD745A-PjU-1" value="&lt;font style=&quot;font-size: 24px;&quot;&gt;app.js&lt;/font&gt;" style="rounded=0;whiteSpace=wrap;html=1;" vertex="1" parent="1">
          <mxGeometry x="580" y="20" width="770" height="50" as="geometry" />
        </mxCell>
        <mxCell id="VSUEKThK-QnD745A-PjU-2" value="&lt;span style=&quot;font-size: 24px;&quot;&gt;serverManager.js&lt;/span&gt;" style="rounded=0;whiteSpace=wrap;html=1;" vertex="1" parent="1">
          <mxGeometry x="520" y="120" width="340" height="50" as="geometry" />
        </mxCell>
        <mxCell id="VSUEKThK-QnD745A-PjU-3" value="&lt;span style=&quot;font-size: 24px;&quot;&gt;routerManager.js&lt;/span&gt;" style="rounded=0;whiteSpace=wrap;html=1;" vertex="1" parent="1">
          <mxGeometry x="1110" y="120" width="340" height="50" as="geometry" />
        </mxCell>
        <mxCell id="VSUEKThK-QnD745A-PjU-4" value="&lt;span style=&quot;font-size: 24px;&quot;&gt;connectionManager.js&lt;/span&gt;" style="rounded=0;whiteSpace=wrap;html=1;" vertex="1" parent="1">
          <mxGeometry x="140" y="190" width="340" height="50" as="geometry" />
        </mxCell>
        <mxCell id="VSUEKThK-QnD745A-PjU-5" value="&lt;span style=&quot;font-size: 24px;&quot;&gt;roomManager.js&lt;/span&gt;" style="rounded=0;whiteSpace=wrap;html=1;" vertex="1" parent="1">
          <mxGeometry x="580" y="290" width="340" height="50" as="geometry" />
        </mxCell>
        <mxCell id="VSUEKThK-QnD745A-PjU-10" value="&lt;span style=&quot;font-size: 24px;&quot;&gt;playManager.js&lt;/span&gt;" style="rounded=0;whiteSpace=wrap;html=1;" vertex="1" parent="1">
          <mxGeometry x="1050" y="290" width="340" height="50" as="geometry" />
        </mxCell>
        <mxCell id="VSUEKThK-QnD745A-PjU-12" value="" style="endArrow=classic;html=1;rounded=0;entryX=0.559;entryY=0;entryDx=0;entryDy=0;entryPerimeter=0;" edge="1" parent="1" target="VSUEKThK-QnD745A-PjU-2">
          <mxGeometry width="50" height="50" relative="1" as="geometry">
            <mxPoint x="820" y="70" as="sourcePoint" />
            <mxPoint x="770" y="130" as="targetPoint" />
          </mxGeometry>
        </mxCell>
        <mxCell id="VSUEKThK-QnD745A-PjU-14" value="" style="endArrow=classic;html=1;rounded=0;exitX=0.714;exitY=1;exitDx=0;exitDy=0;exitPerimeter=0;" edge="1" parent="1" source="VSUEKThK-QnD745A-PjU-1">
          <mxGeometry width="50" height="50" relative="1" as="geometry">
            <mxPoint x="1170" y="170" as="sourcePoint" />
            <mxPoint x="1220" y="120" as="targetPoint" />
          </mxGeometry>
        </mxCell>
        <mxCell id="VSUEKThK-QnD745A-PjU-15" value="" style="endArrow=classic;html=1;rounded=0;entryX=1;entryY=0;entryDx=0;entryDy=0;exitX=0.382;exitY=0.92;exitDx=0;exitDy=0;exitPerimeter=0;" edge="1" parent="1" source="VSUEKThK-QnD745A-PjU-2" target="VSUEKThK-QnD745A-PjU-4">
          <mxGeometry width="50" height="50" relative="1" as="geometry">
            <mxPoint x="740" y="520" as="sourcePoint" />
            <mxPoint x="790" y="470" as="targetPoint" />
          </mxGeometry>
        </mxCell>
        <mxCell id="VSUEKThK-QnD745A-PjU-16" value="" style="endArrow=classic;html=1;rounded=0;entryX=0.544;entryY=-0.02;entryDx=0;entryDy=0;entryPerimeter=0;" edge="1" parent="1" target="VSUEKThK-QnD745A-PjU-5">
          <mxGeometry width="50" height="50" relative="1" as="geometry">
            <mxPoint x="750" y="170" as="sourcePoint" />
            <mxPoint x="790" y="280" as="targetPoint" />
          </mxGeometry>
        </mxCell>
        <mxCell id="VSUEKThK-QnD745A-PjU-17" value="" style="endArrow=classic;html=1;rounded=0;entryX=0.324;entryY=0;entryDx=0;entryDy=0;entryPerimeter=0;exitX=0.676;exitY=1;exitDx=0;exitDy=0;exitPerimeter=0;" edge="1" parent="1" source="VSUEKThK-QnD745A-PjU-2" target="VSUEKThK-QnD745A-PjU-10">
          <mxGeometry width="50" height="50" relative="1" as="geometry">
            <mxPoint x="800" y="170" as="sourcePoint" />
            <mxPoint x="840" y="280" as="targetPoint" />
          </mxGeometry>
        </mxCell>
        <mxCell id="VSUEKThK-QnD745A-PjU-19" value="" style="endArrow=classic;html=1;rounded=0;exitX=0.841;exitY=1.04;exitDx=0;exitDy=0;exitPerimeter=0;entryX=0.008;entryY=0.05;entryDx=0;entryDy=0;entryPerimeter=0;" edge="1" parent="1" source="VSUEKThK-QnD745A-PjU-4" target="VSUEKThK-QnD745A-PjU-18">
          <mxGeometry width="50" height="50" relative="1" as="geometry">
            <mxPoint x="570" y="480" as="sourcePoint" />
            <mxPoint x="620" y="430" as="targetPoint" />
          </mxGeometry>
        </mxCell>
        <mxCell id="VSUEKThK-QnD745A-PjU-21" value="&lt;span style=&quot;font-size: 24px;&quot;&gt;roomClientsManager.js&lt;/span&gt;" style="rounded=0;whiteSpace=wrap;html=1;" vertex="1" parent="1">
          <mxGeometry x="540" y="440" width="340" height="50" as="geometry" />
        </mxCell>
        <mxCell id="VSUEKThK-QnD745A-PjU-22" value="&lt;span style=&quot;font-size: 24px;&quot;&gt;playClientsManager.js&lt;/span&gt;" style="rounded=0;whiteSpace=wrap;html=1;" vertex="1" parent="1">
          <mxGeometry x="1040" y="440" width="340" height="50" as="geometry" />
        </mxCell>
        <mxCell id="VSUEKThK-QnD745A-PjU-24" value="" style="endArrow=classic;html=1;rounded=0;entryX=0.508;entryY=0.03;entryDx=0;entryDy=0;entryPerimeter=0;" edge="1" parent="1" target="VSUEKThK-QnD745A-PjU-23">
          <mxGeometry width="50" height="50" relative="1" as="geometry">
            <mxPoint x="970" y="370" as="sourcePoint" />
            <mxPoint x="1020" y="320" as="targetPoint" />
          </mxGeometry>
        </mxCell>
        <mxCell id="VSUEKThK-QnD745A-PjU-25" value="&lt;font style=&quot;font-size: 24px;&quot;&gt;dbClients.js&lt;/font&gt;" style="rounded=0;whiteSpace=wrap;html=1;" vertex="1" parent="1">
          <mxGeometry x="1710" y="60" width="300" height="50" as="geometry" />
        </mxCell>
        <mxCell id="VSUEKThK-QnD745A-PjU-26" value="&lt;span style=&quot;font-size: 24px;&quot;&gt;baseRepository.js&lt;/span&gt;" style="rounded=0;whiteSpace=wrap;html=1;" vertex="1" parent="1">
          <mxGeometry x="1710" y="190" width="300" height="50" as="geometry" />
        </mxCell>
        <mxCell id="VSUEKThK-QnD745A-PjU-27" value="" style="endArrow=none;html=1;rounded=0;exitX=0.5;exitY=0;exitDx=0;exitDy=0;" edge="1" parent="1" source="VSUEKThK-QnD745A-PjU-26">
          <mxGeometry width="50" height="50" relative="1" as="geometry">
            <mxPoint x="1810" y="160" as="sourcePoint" />
            <mxPoint x="1860" y="110" as="targetPoint" />
          </mxGeometry>
        </mxCell>
        <mxCell id="VSUEKThK-QnD745A-PjU-28" value="&lt;span style=&quot;font-size: 24px;&quot;&gt;usersRepository.js&lt;/span&gt;" style="rounded=0;whiteSpace=wrap;html=1;" vertex="1" parent="1">
          <mxGeometry x="1710" y="300" width="300" height="50" as="geometry" />
        </mxCell>
        <mxCell id="VSUEKThK-QnD745A-PjU-29" value="&lt;span style=&quot;font-size: 24px;&quot;&gt;roomMemberRepository.js&lt;/span&gt;" style="rounded=0;whiteSpace=wrap;html=1;" vertex="1" parent="1">
          <mxGeometry x="1710" y="440" width="300" height="50" as="geometry" />
        </mxCell>
        <mxCell id="VSUEKThK-QnD745A-PjU-30" value="&lt;span style=&quot;font-size: 24px;&quot;&gt;roomsRepository.js&lt;/span&gt;" style="rounded=0;whiteSpace=wrap;html=1;" vertex="1" parent="1">
          <mxGeometry x="1710" y="370" width="300" height="50" as="geometry" />
        </mxCell>
        <mxCell id="VSUEKThK-QnD745A-PjU-32" value="" style="endArrow=classic;html=1;rounded=0;entryX=0.514;entryY=0;entryDx=0;entryDy=0;entryPerimeter=0;" edge="1" parent="1" target="VSUEKThK-QnD745A-PjU-31">
          <mxGeometry width="50" height="50" relative="1" as="geometry">
            <mxPoint x="1860" y="240" as="sourcePoint" />
            <mxPoint x="1910" y="190" as="targetPoint" />
          </mxGeometry>
        </mxCell>
        <mxCell id="VSUEKThK-QnD745A-PjU-36" value="" style="endArrow=classic;html=1;rounded=0;entryX=0.999;entryY=0.479;entryDx=0;entryDy=0;exitX=0;exitY=0.5;exitDx=0;exitDy=0;entryPerimeter=0;" edge="1" parent="1" source="VSUEKThK-QnD745A-PjU-31" target="VSUEKThK-QnD745A-PjU-35">
          <mxGeometry width="50" height="50" relative="1" as="geometry">
            <mxPoint x="1630" y="750" as="sourcePoint" />
            <mxPoint x="1680" y="700" as="targetPoint" />
          </mxGeometry>
        </mxCell>
        <mxCell id="VSUEKThK-QnD745A-PjU-37" value="" style="rounded=0;whiteSpace=wrap;html=1;" vertex="1" parent="1">
          <mxGeometry x="180" y="670" width="1830" height="200" as="geometry" />
        </mxCell>
        <mxCell id="VSUEKThK-QnD745A-PjU-38" value="utils" style="text;html=1;align=left;verticalAlign=middle;whiteSpace=wrap;rounded=0;fontSize=24;" vertex="1" parent="1">
          <mxGeometry x="190" y="680" width="220" height="30" as="geometry" />
        </mxCell>
        <mxCell id="VSUEKThK-QnD745A-PjU-40" value="&lt;span style=&quot;font-size: 24px;&quot;&gt;cookieManager.js&lt;/span&gt;" style="rounded=0;whiteSpace=wrap;html=1;" vertex="1" parent="1">
          <mxGeometry x="230" y="750" width="340" height="50" as="geometry" />
        </mxCell>
      </root>
    </mxGraphModel>
  </diagram>
</mxfile>
